<svg xmlns="http://www.w3.org/2000/svg" viewBox="0 0 512 512" width="512" height="512">
  <circle cx="256" cy="256" r="256" fill="#FF3B30"/>
  
  <circle cx="256" cy="256" r="230" fill="#FFFFFF"/>
  
  <path d="M256 256 L256 46 A210 210 0 0 1 466 256 Z" fill="#FFCC00" opacity="0.5"/>
  
  <path d="M180 340 L332 340 L332 220 C332 180 300 150 256 150 C212 150 180 180 180 220 Z" fill="#333"/>
  <rect x="190" y="230" width="50" height="40" fill="#87CEEB"/> <rect x="272" y="230" width="50" height="40" fill="#87CEEB"/> <circle cx="220" cy="310" r="15" fill="#FFD700"/> <circle cx="292" cy="310" r="15" fill="#FFD700"/> <rect x="248" y="256" width="16" height="140" rx="8" fill="#333" transform="rotate(135 256 256)"/>
  <rect x="248" y="100" width="16" height="156" rx="8" fill="#FF3B30"/>
  <circle cx="256" cy="256" r="16" fill="#333"/>
</svg>